<svg xmlns="http://www.w3.org/2000/svg" width="2000" height="2000" viewBox="0 0 2000 2000">
  <metadata><?xpacket begin="﻿" id="W5M0MpCehiHzreSzNTczkc9d"?>
<x:xmpmeta xmlns:x="adobe:ns:meta/" x:xmptk="Adobe XMP Core 5.6-c138 79.159824, 2016/09/14-01:09:01        ">
   <rdf:RDF xmlns:rdf="http://www.w3.org/1999/02/22-rdf-syntax-ns#">
      <rdf:Description rdf:about=""/>
   </rdf:RDF>
</x:xmpmeta>
                                                                                                    
                                                                                                    
                                                                                                    
                                                                                                    
                                                                                                    
                                                                                                    
                                                                                                    
                                                                                                    
                                                                                                    
                                                                                                    
                                                                                                    
                                                                                                    
                                                                                                    
                                                                                                    
                                                                                                    
                                                                                                    
                                                                                                    
                                                                                                    
                                                                                                    
                                                                                                    
                           
<?xpacket end="w"?></metadata>
<defs>
    <style>
      .cls-1, .cls-2 {
        fill: #c9292c;
      }

      .cls-1 {
        fill-opacity: 0.57;
        opacity: 0.4;
      }

      .cls-1, .cls-2, .cls-3, .cls-4 {
        fill-rule: evenodd;
      }

      .cls-3 {
        fill: #fff;
      }

      .cls-4 {
        fill: #1b1919;
      }
    </style>
  </defs>
  <path id="Прямоугольник_1" data-name="Прямоугольник 1" class="cls-1" d="M756.323,295.45H1629.23a60,60,0,0,1,60,60v956.38H756.323a60,60,0,0,1-60-60V355.45A60,60,0,0,1,756.323,295.45Z"/>
  <path id="Прямоугольник_1_копия_3" data-name="Прямоугольник 1 копия 3" class="cls-2" d="M470.742,4H1529.45a60,60,0,0,1,60,60V1212.03H470.742a60,60,0,0,1-60-60V64A60,60,0,0,1,470.742,4Z"/>
  <path id="Фигура_3_копия" data-name="Фигура 3 копия" class="cls-3" d="M1465.55,985.5l-464.3-491.13L533.553,985.5l467.7-754.97ZM918.582,694.248H1082.79l-81.54-84.521ZM1210.75,827.881l-74.74-78.81H865.357l-74.74,78.81H1210.75Z"/>
  <path id="_.io" data-name=".io" class="cls-4" d="M585.013,1994.08L425.078,1560.13H259.942L100.007,1994.08H248.889l15.6-50.75H420.527l15.6,50.75H585.013ZM385.419,1828.83H299.6l42.909-139.88Zm624.091,165.25-78.668-153.54c34.458-16.92,78.018-56.6,78.018-131.42,0-81.33-54.613-148.99-156.035-148.99H621.374v433.95H752.7V1857.45h47.461l59.813,136.63H1009.51ZM832.671,1742.95H752.7v-68.32h79.968c22.1,0,42.909,10.41,42.909,33.84C875.58,1732.54,854.776,1742.95,832.671,1742.95Zm655.3,251.13-170.99-232.26,163.84-201.69H1320.23l-113.77,162.65V1560.13H1075.13v433.95h131.33V1873.72l24.05-32.53,97.53,152.89h159.93Zm61.89,4.5a27.335,27.335,0,1,0-27.27-27.33A27.628,27.628,0,0,0,1549.86,1998.58Zm94.64-215.97a25.385,25.385,0,1,0-25.32-25.39A25.3,25.3,0,0,0,1644.5,1782.61Zm20.64,211.68V1805.65h-40.9v188.64h40.9Zm137.87,4.68c60.37,0,96.98-44.91,96.98-99.2,0-53.89-36.61-98.8-96.98-98.8-59.59,0-96.59,44.91-96.59,98.8C1706.42,1954.06,1743.42,1998.97,1803.01,1998.97Zm0-36.32c-34.66,0-54.14-29.29-54.14-62.88,0-33.19,19.48-62.48,54.14-62.48,35.05,0,54.53,29.29,54.53,62.48C1857.54,1933.36,1838.06,1962.65,1803.01,1962.65Z"/>
</svg>
